#!OML:ASF E:\motion texture\Top Level 1\Subject 1\Session 1\male.ASF
:FULLY-SPECIFIED
:DEGREES
815
root -39.9305 18.1223 2.05244 63.8885 -81.2649 -58.1494
lowerback -2.95732 2.14529 7.62331
upperback -2.96463 2.60357 4.00434
thorax -1.25386 1.14317 -0.076407
lowerneck -15.0076 -3.21797 -6.61078
upperneck 1.22304 -3.69155 8.51291
head 3.05894 -1.54602 3.41964
rclavicle -2.33075e-014 1.03368e-014
rhumerus -12.4084 37.0337 -101.839
rradius 59.7407
rwrist -11.5497
rhand -30.2724 -39.9316
rfingers 7.12502
rthumb -3.58055 -69.8813
lclavicle -2.33075e-014 1.03368e-014
lhumerus -20.5483 -27.4568 95.0041
lradius 71.2474
lwrist 1.77353
lhand -11.9323 36.9238
lfingers 7.12502
lthumb 14.1223 66.4239
rfemur -10.904 -3.47318 32.6434
rtibia 15.276
rfoot -7.05921 -13.4354
rtoes 22.069
lfemur -23.0394 -0.640229 -7.5298
ltibia 55.0129
lfoot -2.43047 -4.07131
ltoes -13.6274
816
root -40.0691 18.1231 2.04791 65.3723 -81.3103 -59.5964
lowerback -2.94583 2.18457 7.70578
upperback -2.93042 2.65138 4.04181
thorax -1.22055 1.16671 -0.081554
lowerneck -15.1863 -3.28482 -6.67578
upperneck 1.48124 -3.77598 8.58557
head 3.17456 -1.57762 3.44429
rclavicle 1.49213e-014 3.18055e-015
rhumerus -14.0359 35.6508 -102.371
rradius 57.6905
rwrist -13.655
rhand -29.2193 -40.1894
rfingers 7.12502
rthumb -2.5635 -70.1537
lclavicle 1.49213e-014 3.18055e-015
lhumerus -22.0542 -26.977 95.5378
lradius 68.7545
lwrist -0.225059
lhand -11.7416 35.8618
lfingers 7.12502
lthumb 14.306 65.3489
rfemur -10.3821 -3.42933 32.7707
rtibia 15.1824
rfoot -7.3626 -13.3229
rtoes 21.6854
lfemur -23.7106 -0.483154 -7.50298
ltibia 54.7066
lfoot -2.93816 -3.60886
ltoes -13.609
817
root -40.2072 18.1231 2.04437 66.8464 -81.3579 -61.0247
lowerback -2.93579 2.22204 7.78076
upperback -2.89606 2.69684 4.07568
thorax -1.18647 1.1893 -0.0862594
lowerneck -15.3597 -3.35232 -6.74222
upperneck 1.72232 -3.86081 8.65932
head 3.28451 -1.60966 3.46948
rclavicle -1.32316e-014 0
rhumerus -15.5534 34.1337 -102.747
rradius 55.5726
rwrist -15.7209
rhand -28.1285 -40.4661
rfingers 7.12502
rthumb -1.51006 -70.4405
lclavicle -1.32316e-014 0
lhumerus -23.486 -26.3786 96.0086
lradius 66.1882
lwrist -2.23409
lhand -11.6047 34.7988
lfingers 7.12502
lthumb 14.4379 64.2765
rfemur -9.87793 -3.37562 32.8824
rtibia 15.1008
rfoot -7.66475 -13.2234
rtoes 21.2732
lfemur -24.3678 -0.334993 -7.49186
ltibia 54.306
lfoot -3.44269 -3.13934
ltoes -13.6069
818
root -40.345 18.1222 2.04168 68.3142 -81.4082 -62.438
lowerback -2.91518 2.25707 7.84952
upperback -2.86854 2.741 4.10417
thorax -1.16543 1.21087 -0.0936305
lowerneck -15.5292 -3.42026 -6.80858
upperneck 1.95484 -3.94631 8.73401
head 3.39156 -1.6421 3.49488
rclavicle 1.14425e-014 -1.90833e-014
rhumerus -16.9748 32.4735 -102.969
rradius 53.3883
rwrist -17.6956
rhand -27.012 -40.7388
rfingers 7.12502
rthumb -0.43166 -70.7182
lclavicle 1.14425e-014 -1.90833e-014
lhumerus -24.853 -25.658 96.409
lradius 63.561
lwrist -4.23555
lhand -11.5234 33.754
lfingers 7.12502
lthumb 14.5162 63.2262
rfemur -9.39046 -3.30692 32.9795
rtibia 15.0309
rfoot -7.96599 -13.1415
rtoes 20.837
lfemur -25.0069 -0.195038 -7.49455
ltibia 53.8099
lfoot -3.93758 -2.673
ltoes -13.635
819
root -40.4824 18.1205 2.03993 69.7654 -81.4568 -63.8245
lowerback -2.89798 2.28933 7.91377
upperback -2.84107 2.78126 4.12995
thorax -1.14274 1.23066 -0.101276
lowerneck -15.6946 -3.48794 -6.87543
upperneck 2.17104 -4.03105 8.80904
head 3.49319 -1.67441 3.5205
rclavicle -2.64011e-014 -5.64548e-014
rhumerus -18.2899 30.6705 -103.021
rradius 51.1413
rwrist -19.5297
rhand -25.8732 -41.0077
rfingers 7.12502
rthumb 0.668259 -70.9864
lclavicle -2.64011e-014 -5.64548e-014
lhumerus -26.1411 -24.8119 96.726
lradius 60.8865
lwrist -6.20471
lhand -11.4931 32.7261
lfingers 7.12502
lthumb 14.5455 62.1962
rfemur -8.92149 -3.22841 33.0664
rtibia 14.9729
rfoot -8.2655 -13.0753
rtoes 20.3701
lfemur -25.6306 -0.066683 -7.50671
ltibia 53.2202
lfoot -4.41081 -2.21525
ltoes -13.6898
820
root -40.6197 18.1178 2.03899 71.205 -81.5032 -65.1894
lowerback -2.88504 2.31935 7.97353
upperback -2.81288 2.81815 4.15345
thorax -1.11714 1.24898 -0.1087
lowerneck -15.8545 -3.55482 -6.9438
upperneck 2.36646 -4.11414 8.88668
head 3.58783 -1.70615 3.54734
rclavicle 5.85172e-015 -1.11319e-014
rhumerus -19.5014 28.7228 -102.896
rradius 48.8373
rwrist -21.1864
rhand -24.733 -41.2507
rfingers 7.12502
rthumb 1.76941 -71.2231
lclavicle 5.85172e-015 -1.11319e-014
lhumerus -27.3473 -23.8392 96.9501
lradius 58.1752
lwrist -8.12995
lhand -11.5158 31.7216
lfingers 7.12502
lthumb 14.5235 61.1932
rfemur -8.47124 -3.13669 33.1453
rtibia 14.9277
rfoot -8.56517 -13.0277
rtoes 19.8777
lfemur -26.237 0.0506519 -7.52528
ltibia 52.5363
lfoot -4.85057 -1.77024
ltoes -13.7028
821
root -40.7568 18.1142 2.03891 72.6243 -81.5484 -66.524
lowerback -2.87636 2.34701 8.02795
upperback -2.78403 2.85155 4.1744
thorax -1.08871 1.2658 -0.115718
lowerneck -16.0132 -3.6219 -7.00918
upperneck 2.54612 -4.1972 8.95987
head 3.6775 -1.73825 3.57226
rclavicle 1.10822e-014 -2.8625e-014
rhumerus -20.6157 26.6248 -102.588
rradius 46.4809
rwrist -22.6116
rhand -23.6062 -41.4532
rfingers 7.12502
rthumb 2.85768 -71.4138
lclavicle 1.10822e-014 -2.8625e-014
lhumerus -28.473 -22.736 97.0721
lradius 55.4408
lwrist -10.0057
lhand -11.5848 30.7623
lfingers 7.12502
lthumb 14.4571 60.2387
rfemur -8.0387 -3.03349 33.2153
rtibia 14.8945
rfoot -8.86409 -12.9983
rtoes 19.3578
lfemur -26.8263 0.155268 -7.55124
ltibia 51.7629
lfoot -5.25412 -1.34503
ltoes -13.6965
822
root -40.8938 18.1096 2.0396 74.0337 -81.5888 -67.8379
lowerback -2.87211 2.37258 8.08062
upperback -2.75523 2.88168 4.19382
thorax -1.05801 1.2811 -0.123242
lowerneck -16.1668 -3.68815 -7.07461
upperneck 2.70567 -4.27859 9.0333
head 3.76029 -1.76987 3.59741
rclavicle 1.53561e-014 -2.54444e-014
rhumerus -21.64 24.3716 -102.092
rradius 44.08
rwrist -23.7532
rhand -22.5018 -41.6067
rfingers 7.12502
rthumb 3.92416 -71.5503
lclavicle 1.53561e-014 -2.54444e-014
lhumerus -29.5199 -21.4979 97.0813
lradius 52.6957
lwrist -11.8273
lhand -11.6869 29.8623
lfingers 7.12502
lthumb 14.3587 59.3457
rfemur -7.6253 -2.91653 33.2818
rtibia 14.8732
rfoot -9.16177 -12.9886
rtoes 18.808
lfemur -27.4 0.248 -7.57781
ltibia 50.9037
lfoot -5.61804 -0.943121
ltoes -13.6723
823
root -41.0307 18.1041 2.04111 75.4269 -81.6261 -69.1272
lowerback -2.86928 2.39545 8.13118
upperback -2.72655 2.90816 4.21085
thorax -1.02679 1.29468 -0.132094
lowerneck -16.3176 -3.75329 -7.13502
upperneck 2.8471 -4.35852 9.10252
head 3.83692 -1.8012 3.62052
rclavicle 2.82771e-014 -3.18055e-014
rhumerus -22.5866 21.9624 -101.406
rradius 41.6419
rwrist -24.56
rhand -21.4318 -41.6946
rfingers 7.12502
rthumb 4.95741 -71.6166
lclavicle 2.82771e-014 -3.18055e-014
lhumerus -30.4923 -20.1199 96.9669
lradius 49.9529
lwrist -13.5912
lhand -11.8067 29.0354
lfingers 7.12502
lthumb 14.2433 58.527
rfemur -7.2274 -2.7889 33.343
rtibia 14.8637
rfoot -9.4592 -12.9962
rtoes 18.2326
lfemur -27.9521 0.326603 -7.60618
ltibia 49.9581
lfoot -5.93988 -0.564939
ltoes -13.6324
824
root -41.1675 18.0976 2.04332 76.823 -81.658 -70.4098
lowerback -2.86503 2.41723 8.1823
upperback -2.69914 2.93347 4.22609
thorax -0.997621 1.30758 -0.143198
lowerneck -16.4653 -3.81763 -7.19377
upperneck 2.96959 -4.43695 9.17063
head 3.90724 -1.83213 3.64312
rclavicle 1.61885e-014 5.48646e-014
rhumerus -23.4632 19.3842 -100.519
rradius 39.181
rwrist -25.0079
rhand -20.3815 -41.7069
rfingers 7.12502
rthumb 5.9715 -71.6028
lclavicle 1.61885e-014 5.48646e-014
lhumerus -31.3935 -18.5981 96.719
lradius 47.2241
lwrist -15.2949
lhand -11.9398 28.2891
lfingers 7.12502
lthumb 14.115 57.7897
rfemur -6.84858 -2.64415 33.4037
rtibia 14.8685
rfoot -9.75565 -13.0248
rtoes 17.6288
lfemur -28.487 0.393847 -7.63025
ltibia 48.9337
lfoot -6.22051 -0.20879
ltoes -13.5885
